<?xml version="1.0" standalone="no"?>
<!DOCTYPE svg PUBLIC "-//W3C//DTD SVG 20010904//EN"
 "http://www.w3.org/TR/2001/REC-SVG-20010904/DTD/svg10.dtd">
<svg version="1.0" xmlns="http://www.w3.org/2000/svg"
 width="1254.000000pt" height="1254.000000pt" viewBox="0 0 1254.000000 1254.000000"
 preserveAspectRatio="xMidYMid meet">

<g transform="translate(0.000000,1254.000000) scale(0.100000,-0.100000)"
fill="#000000" stroke="none">
<path d="M6160 11049 c-63 -44 -114 -84 -113 -89 3 -12 -68 -61 -79 -54 -8 5
-154 -91 -165 -109 -4 -6 -1 -7 8 -2 12 8 12 6 0 -8 -15 -19 -26 -23 -15 -6 4
7 1 10 -7 7 -8 -3 -13 -11 -11 -17 1 -7 -2 -10 -8 -6 -14 9 -102 -54 -94 -67
4 -7 2 -8 -5 -4 -41 26 -40 80 -41 -1937 0 -1057 -4 -1924 -8 -1928 -7 -7
-216 -89 -226 -89 -3 0 -7 640 -8 1421 l-3 1422 -205 138 c-113 75 -207 135
-209 133 -3 -2 -5 -742 -5 -1645 l-1 -1640 -374 -149 c-205 -83 -377 -150
-382 -150 -5 0 -9 376 -9 888 l-1 887 -292 177 c-161 97 -294 174 -296 172 -2
-2 -4 -534 -5 -1181 l-1 -1178 -390 -142 c-214 -79 -479 -175 -588 -215 -108
-39 -194 -75 -190 -79 5 -4 150 -83 323 -176 173 -94 361 -196 418 -227 56
-31 112 -56 123 -56 12 0 141 68 287 151 146 83 359 201 475 262 300 158 866
427 898 427 5 0 9 -107 9 -244 l0 -245 57 -44 c103 -78 336 -227 356 -227 4 0
7 216 7 480 0 264 1 480 3 480 1 0 54 22 117 49 l115 50 5 -596 5 -596 103
-39 c133 -49 307 -102 435 -131 l102 -24 7 71 c5 55 0 6156 -6 6163 0 0 -53
-35 -116 -78z m109 15 c2 -48 -2 -50 -41 -16 -9 7 -23 11 -30 7 -8 -5 -10 -5
-3 2 11 10 67 53 69 53 1 0 3 -21 5 -46z"/>
<path d="M5995 10934 c-16 -14 -21 -21 -10 -16 30 16 61 41 50 41 -5 0 -23
-11 -40 -25z"/>
<path d="M7105 10284 c-93 -10 -175 -26 -169 -35 3 -5 78 -9 167 -9 336 0 699
-72 991 -197 43 -18 86 -31 95 -29 9 3 27 -2 41 -10 14 -9 17 -13 8 -10 -10 3
-26 9 -35 12 -10 3 29 -20 87 -52 79 -42 116 -57 150 -59 28 -1 45 -6 45 -14
0 -6 7 -16 15 -21 8 -5 11 -10 5 -10 -5 0 -23 9 -40 20 -16 11 -34 20 -39 20
-5 0 52 -40 125 -89 595 -398 992 -1002 1133 -1728 41 -210 50 -306 50 -555 1
-172 4 -238 12 -238 17 0 20 13 40 141 22 142 26 556 6 694 -43 297 -128 576
-246 815 -81 162 -154 283 -166 275 -5 -3 -12 0 -16 6 -4 8 -3 9 4 5 39 -24
-30 79 -142 214 -96 114 -278 291 -294 285 -7 -3 -11 -1 -7 4 12 20 -224 187
-389 276 -256 137 -491 218 -776 267 -88 15 -174 20 -365 23 -137 1 -268 1
-290 -1z m1455 -318 c0 -2 -8 -10 -17 -17 -11 -10 -14 -10 -9 -1 5 8 0 12 -13
12 -14 0 -21 6 -21 20 0 20 1 20 30 5 17 -9 30 -17 30 -19z m186 -129 c1 -9
-2 -17 -7 -17 -17 0 -47 33 -42 47 5 12 9 12 26 0 11 -7 21 -21 23 -30z m30
-22 c1 -8 -2 -15 -6 -15 -5 0 -8 9 -7 20 1 21 10 18 13 -5z m-92 -54 c4 0 6
-8 2 -16 -3 -8 2 -19 12 -24 9 -6 12 -11 7 -11 -6 0 -26 13 -45 29 -36 30 -35
31 24 22z m217 -28 c13 -16 12 -17 -3 -4 -10 7 -18 15 -18 17 0 8 8 3 21 -13z
m-38 -127 c7 4 9 3 4 -1 -4 -5 0 -19 8 -32 22 -33 14 -29 -30 18 -22 23 -35
39 -28 35 6 -3 15 -1 20 6 6 9 9 6 11 -10 2 -14 8 -20 15 -16z m320 -141 l21
-30 -23 20 c-16 14 -22 15 -19 5 2 -8 -4 -15 -12 -15 -11 0 -14 9 -13 31 1 24
-7 40 -33 65 -19 18 -34 27 -34 20 0 -7 -4 -10 -9 -7 -5 4 -11 0 -14 -6 -3 -9
-8 -10 -16 -3 -8 8 -5 15 9 25 19 14 19 15 -7 45 -15 16 8 -4 50 -45 43 -41
88 -88 100 -105z m-168 18 c-4 -10 -8 -24 -8 -31 0 -9 -5 -9 -21 1 -20 14 -38
45 -18 33 6 -3 13 -2 17 4 3 5 13 10 22 10 11 0 13 -5 8 -17z m75 -128 c13
-14 21 -25 18 -25 -2 0 -15 11 -28 25 -13 14 -21 25 -18 25 2 0 15 -11 28 -25z
m241 -77 c19 -34 2 -17 -30 30 -25 35 -26 40 -6 17 14 -16 30 -38 36 -47z"/>
<path d="M8335 8860 c-55 -15 -485 -128 -955 -250 -470 -122 -858 -224 -862
-227 -5 -2 -8 -121 -8 -264 0 -243 1 -260 18 -255 126 39 409 116 423 116 18
0 19 -16 19 -375 l0 -374 -52 -16 c-93 -26 -301 -82 -355 -95 l-53 -12 0 -268
0 -268 68 19 c250 70 383 105 387 101 3 -3 5 -161 5 -352 l0 -346 -218 -57
c-120 -31 -223 -57 -230 -57 -9 0 -12 -58 -12 -235 0 -221 1 -236 20 -255 11
-11 30 -22 43 -25 15 -4 218 42 528 119 277 68 582 143 677 166 95 22 178 43
185 46 7 2 57 -31 112 -75 l100 -80 7 102 c17 232 67 409 169 606 83 162 226
344 360 461 l59 51 0 957 c0 893 -1 960 -17 990 -12 22 -56 57 -132 107 -133
87 -134 87 -286 45z m-125 -943 l0 -382 -342 -88 c-189 -49 -347 -89 -353 -90
-6 -1 -10 76 -11 213 -1 118 -2 267 -3 331 l-1 115 -36 42 c-19 23 -34 42 -32
42 2 1 766 196 776 199 1 1 2 -171 2 -382z m-2 -1269 l-3 -362 -55 -14 c-136
-35 -588 -144 -618 -149 l-32 -6 2 359 3 359 345 86 c190 48 348 87 353 88 4
1 6 -162 5 -361z"/>
<path d="M10345 7278 c-103 -53 -279 -125 -585 -240 -342 -128 -470 -183 -601
-261 -291 -170 -486 -376 -619 -652 -112 -231 -154 -408 -154 -650 0 -259 -34
-267 312 77 312 311 512 499 752 708 197 172 423 360 433 360 23 0 -711 -765
-1081 -1128 -296 -289 -478 -425 -752 -561 -609 -301 -1332 -385 -1990 -230
-516 122 -1027 395 -1391 746 -47 46 -89 83 -93 83 -15 0 -2 -29 50 -114 298
-480 824 -848 1429 -1000 264 -67 574 -96 830 -77 373 26 643 96 950 246 248
120 401 230 600 430 l129 130 151 -3 c103 -3 180 1 245 12 325 53 632 211 873
451 314 311 493 731 567 1325 11 94 30 310 30 353 0 34 -10 34 -85 -5z"/>
<path d="M1666 3928 c4 -7 32 -51 62 -98 30 -47 129 -201 219 -342 l163 -258
0 -200 0 -200 130 0 130 0 0 200 0 201 152 237 c83 130 182 283 220 340 38 56
71 109 75 118 5 13 -14 14 -138 12 l-143 -3 -145 -233 -145 -233 -61 97 c-74
116 -173 273 -209 332 l-26 42 -146 0 c-113 0 -144 -3 -138 -12z"/>
<path d="M3526 3913 c-21 -43 -496 -1074 -496 -1079 0 -3 62 -3 137 -2 l137 3
50 113 50 112 266 0 266 0 49 -115 49 -115 139 0 c107 0 138 3 134 13 -13 32
-208 460 -317 697 -67 146 -136 295 -152 333 l-31 67 -133 0 -133 0 -15 -27z
m233 -437 c44 -106 81 -196 81 -200 0 -3 -77 -6 -171 -6 -159 0 -171 1 -165
18 22 60 162 382 167 382 4 0 43 -87 88 -194z"/>
<path d="M4750 3385 l0 -556 128 3 127 3 0 343 c0 188 2 342 5 342 3 0 88
-124 190 -275 l184 -275 48 0 47 0 188 282 188 282 3 -352 2 -352 130 0 130 0
0 555 0 555 -133 0 -134 0 -105 -152 c-58 -84 -151 -222 -207 -305 -56 -84
-105 -153 -109 -153 -4 0 -36 44 -71 98 -35 53 -127 190 -205 304 l-141 208
-132 0 -133 0 0 -555z"/>
<path d="M6956 3727 c-148 -318 -406 -885 -406 -892 0 -3 61 -4 136 -3 l137 3
48 110 48 110 267 0 266 0 48 -110 47 -110 141 -3 141 -3 -14 33 c-22 55 -264
587 -381 841 l-109 237 -135 0 -135 0 -99 -213z m323 -255 c45 -107 81 -196
78 -198 -2 -3 -81 -3 -174 -2 l-170 3 86 202 c47 111 89 199 92 195 3 -4 43
-94 88 -200z"/>
<path d="M8260 3386 l0 -556 300 0 c232 0 318 4 378 16 306 61 486 317 443
630 -29 206 -169 364 -386 435 -66 21 -90 23 -402 27 l-333 4 0 -556z m641
314 c129 -38 208 -143 217 -289 8 -133 -39 -238 -133 -303 -68 -45 -134 -58
-308 -58 l-157 0 0 335 0 334 63 3 c121 6 252 -3 318 -22z"/>
<path d="M10133 3823 c-30 -65 -88 -190 -128 -278 -40 -88 -128 -279 -195
-425 -67 -146 -124 -271 -127 -277 -4 -10 26 -13 133 -13 l139 0 49 115 48
115 268 0 267 0 18 -47 c10 -27 31 -78 48 -115 l30 -68 138 0 c77 0 139 2 139
4 0 2 -70 158 -156 347 -86 189 -180 396 -209 459 -28 63 -71 157 -95 208
l-43 92 -134 0 -134 0 -56 -117z m275 -347 c45 -106 82 -196 82 -200 0 -3 -77
-6 -171 -6 -159 0 -171 1 -165 18 29 77 161 382 166 382 3 0 43 -87 88 -194z"/>
<path d="M3926 2384 c-95 -34 -148 -110 -149 -213 -1 -184 193 -287 372 -196
l51 25 0 95 0 95 -90 0 -90 0 0 -30 c0 -30 1 -30 55 -30 l55 0 0 -46 c0 -42
-2 -46 -35 -60 -84 -35 -184 -1 -222 76 -13 24 -23 56 -23 70 0 41 42 113 80
138 46 31 139 28 187 -6 l31 -22 21 29 c24 33 20 39 -50 70 -52 24 -136 26
-193 5z"/>
<path d="M1780 2170 l0 -220 165 0 165 0 0 30 0 29 -127 3 -128 3 0 60 0 60
113 3 113 3 -3 32 -3 32 -113 3 -113 3 3 57 3 57 123 3 122 3 0 29 0 30 -160
0 -160 0 0 -220z"/>
<path d="M2730 2170 l0 -220 35 0 35 0 0 155 c0 85 3 155 6 155 4 0 12 -6 18
-14 232 -291 236 -296 277 -296 l39 0 0 220 0 220 -40 0 -39 0 -3 -155 -3
-155 -125 155 c-121 149 -126 155 -162 155 l-38 0 0 -220z"/>
<path d="M4840 2170 l0 -220 160 0 160 0 0 30 0 29 -122 3 -123 3 -3 63 -3 62
111 0 110 0 0 35 0 35 -110 0 -111 0 3 58 3 57 123 3 122 3 0 29 0 30 -160 0
-160 0 0 -220z"/>
<path d="M5792 2170 l2 -220 38 0 38 0 0 157 c0 142 2 156 15 142 9 -9 66 -78
128 -155 110 -136 114 -139 155 -142 l42 -3 0 220 0 221 -40 0 -39 0 -3 -157
-3 -157 -125 157 c-125 156 -125 156 -167 156 l-42 1 1 -220z"/>
<path d="M6860 2170 l0 -220 40 0 40 0 0 95 0 95 120 0 120 0 0 -95 0 -95 35
0 35 0 0 220 0 220 -35 0 -35 0 0 -90 0 -90 -120 0 -120 0 0 90 0 90 -40 0
-40 0 0 -220z"/>
<path d="M7952 2176 c-51 -118 -92 -217 -92 -220 0 -3 18 -6 39 -6 38 0 40 1
56 50 l17 50 112 0 112 0 21 -50 c20 -48 23 -50 61 -50 l40 0 -90 208 c-49
114 -92 213 -95 220 -3 7 -23 12 -48 12 l-42 0 -91 -214z m174 37 c19 -43 34
-81 34 -85 0 -5 -34 -8 -76 -8 -62 0 -75 3 -71 14 31 80 70 166 74 162 3 -3
20 -40 39 -83z"/>
<path d="M8910 2170 l0 -220 40 0 40 0 0 75 0 75 53 0 52 0 49 -75 c48 -75 49
-75 92 -75 l44 0 -54 82 -55 82 29 17 c88 54 89 178 1 236 -31 21 -46 23 -162
23 l-129 0 0 -220z m230 147 c39 -13 57 -48 46 -90 -9 -38 -53 -57 -131 -57
l-65 0 0 80 0 80 58 -1 c31 0 73 -5 92 -12z"/>
<path d="M9880 2170 l0 -220 40 0 40 0 0 220 0 220 -40 0 -40 0 0 -220z"/>
<path d="M10713 2373 c-4 -10 -46 -109 -94 -220 l-86 -203 42 0 c42 0 43 1 61
50 l18 50 109 0 108 0 21 -50 c20 -48 22 -50 60 -50 28 0 39 4 35 13 -2 6 -44
105 -92 220 l-88 207 -44 0 c-32 0 -45 -4 -50 -17z m91 -162 c20 -47 36 -86
36 -88 0 -2 -34 -3 -75 -3 -41 0 -75 2 -75 5 0 3 12 34 26 68 15 34 30 73 35
86 5 13 11 22 13 20 2 -2 20 -42 40 -88z"/>
</g>
</svg>
